# xmcd CD database file
#
# Track frame offsets:
#	150
#	12402
#	25031
#	40205
#	54016
#	67271
#	86273
#	97693
#	114362
#	129486
#	145725
#
# Disc length: 1951 seconds
#
# Revision: 0
# Processed by: cddbd v1.5.2PL0 Copyright (c) Steve Scherf et al.
# Submitted via: CDex 1.77
#
DISCID=7f079d0b
DTITLE=Knockout Greg and The Jukes - It's a good thing
DYEAR=2018
DGENRE=Blues
TTITLE0=The Spell's On You
TTITLE1=Backstabbing
TTITLE2=I am Who I am
TTITLE3=Countryboy at Heart
TTITLE4=It's a Good Thing
TTITLE5=She's In Love With My Pocketbook
TTITLE6=Get On Over
TTITLE7=Your Or My Way
TTITLE8=It's Gonna Get Better
TTITLE9=My New Me
TTITLE10=Ha-Ah
EXTD=YEAR: 2018
EXTT0=
EXTT1=
EXTT2=
EXTT3=
EXTT4=
EXTT5=
EXTT6=
EXTT7=
EXTT8=
EXTT9=
EXTT10=
PLAYORDER=
